HIERARCHY
ROOT joint_Root
{
	OFFSET 0.0 0.0 0.0
	CHANNELS 6 Xposition Yposition Zposition Zrotation Xrotation Yrotation 
	JOINT Hips
	{
		OFFSET -0.726466 93.3139 -2.00062
		CHANNELS 6 Xposition Yposition Zposition Zrotation Xrotation Yrotation 
		JOINT Spine
		{
			OFFSET 15.7357 0.0 0.0
			CHANNELS 6 Xposition Yposition Zposition Zrotation Xrotation Yrotation 
			JOINT Chest
			{
				OFFSET 8.98455 -0.406207 0.0
				CHANNELS 6 Xposition Yposition Zposition Zrotation Xrotation Yrotation 
				JOINT Neck
				{
					OFFSET 16.3773 0.0 0.0
					CHANNELS 6 Xposition Yposition Zposition Zrotation Xrotation Yrotation 
					JOINT Head
					{
						OFFSET 6.45672 0.0 0.0
						CHANNELS 6 Xposition Yposition Zposition Zrotation Xrotation Yrotation 
						End Site
						{
							OFFSET 0.0 0.0 0.0
						}
					}
				}
				JOINT Shoulder_L
				{
					OFFSET 12.9942 -0.242716 4.98039
					CHANNELS 6 Xposition Yposition Zposition Zrotation Xrotation Yrotation 
					JOINT UpperArm_L
					{
						OFFSET 5.34809 0.0 0.0
						CHANNELS 6 Xposition Yposition Zposition Zrotation Xrotation Yrotation 
						JOINT LowerArm_L
						{
							OFFSET 24.3286 1.87007e-05 0.0
							CHANNELS 6 Xposition Yposition Zposition Zrotation Xrotation Yrotation 
							JOINT Hand_L
							{
								OFFSET 22.2916 0.0 0.0
								CHANNELS 6 Xposition Yposition Zposition Zrotation Xrotation Yrotation 
								End Site
								{
									OFFSET 0.0 0.0 0.0
								}
							}
						}
					}
				}
				JOINT Shoulder_R
				{
					OFFSET 12.9945 -0.242716 -4.98039
					CHANNELS 6 Xposition Yposition Zposition Zrotation Xrotation Yrotation 
					JOINT UpperArm_R
					{
						OFFSET -5.34813 0.0 0.0
						CHANNELS 6 Xposition Yposition Zposition Zrotation Xrotation Yrotation 
						JOINT LowerArm_R
						{
							OFFSET -24.3289 0.000322201 0.0
							CHANNELS 6 Xposition Yposition Zposition Zrotation Xrotation Yrotation 
							JOINT Hand_R
							{
								OFFSET -22.2915 -0.000108084 0.0
								CHANNELS 6 Xposition Yposition Zposition Zrotation Xrotation Yrotation 
								End Site
								{
									OFFSET 0.0 0.0 0.0
								}
							}
						}
					}
				}
			}
		}
		JOINT UpperLeg_L
		{
			OFFSET -2.19248 -6.46944 0.0
			CHANNELS 6 Xposition Yposition Zposition Zrotation Xrotation Yrotation 
			JOINT LowerLeg_L
			{
				OFFSET 39.0811 0.0 -1.23785e-05
				CHANNELS 6 Xposition Yposition Zposition Zrotation Xrotation Yrotation 
				JOINT Foot_L
				{
					OFFSET 40.9854 0.0 -1.26872e-05
					CHANNELS 6 Xposition Yposition Zposition Zrotation Xrotation Yrotation 
					JOINT Toes_L
					{
						OFFSET 11.7543 0.0 0.0
						CHANNELS 6 Xposition Yposition Zposition Zrotation Xrotation Yrotation 
						End Site
						{
							OFFSET 0.0 0.0 0.0
						}
					}
				}
			}
		}
		JOINT UpperLeg_R
		{
			OFFSET -2.19251 6.46944 0.0
			CHANNELS 6 Xposition Yposition Zposition Zrotation Xrotation Yrotation 
			JOINT LowerLeg_R
			{
				OFFSET -39.0811 -0.00228153 -0.0401928
				CHANNELS 6 Xposition Yposition Zposition Zrotation Xrotation Yrotation 
				JOINT Foot_R
				{
					OFFSET -40.9854 0.0 0.0
					CHANNELS 6 Xposition Yposition Zposition Zrotation Xrotation Yrotation 
					JOINT Toes_R
					{
						OFFSET -11.7543 0.0 0.0
						CHANNELS 6 Xposition Yposition Zposition Zrotation Xrotation Yrotation 
						End Site
						{
							OFFSET 0.0 0.0 0.0
						}
					}
				}
			}
		}
	}
}
MOTION
Frames:	6
Frame Time:	0.0333333
0.000000 0.000000 0.000000 0.000000 0.000000 -0.000000 -3.910810 92.080000 -0.096635 88.410500 3.718060 4.507190 15.735700 0.000005 -0.000001 68.987600 84.716200 -64.567200 8.984550 -0.406207 -0.000000 2.273760 -3.997890 8.914820 16.377300 -0.000001 -0.000001 3.426830 -1.362890 -2.964410 6.456720 -0.000001 -0.000000 1.481620 -1.962950 7.589150 12.994200 -0.242716 4.980390 -84.048000 -11.328600 -62.043200 5.348090 -0.000007 -0.000001 -69.152000 -59.250800 -114.050000 24.328600 0.000019 0.000005 3.628110 3.518750 -45.934800 22.291600 -0.000001 0.000005 17.946200 5.508610 -6.883760 12.994500 -0.242716 -4.980390 90.947400 -2.593020 -69.920600 -5.348130 -0.000001 -0.000004 -59.072900 72.542600 10.185000 -24.328900 0.000322 -0.000009 19.260200 1.723370 -85.081800 -22.291500 -0.000108 -0.000004 33.786900 5.644130 -27.762600 -2.192480 -6.469440 -0.000000 -168.176000 -16.169800 -3.105970 39.081100 -0.000007 -0.000012 -0.144478 0.397460 19.976600 40.985400 -0.000006 -0.000013 -7.630270 0.755933 -60.094500 11.754300 -0.000000 0.000003 -0.000135 -0.001325 -16.628000 -2.192510 6.469440 -0.000001 175.003000 23.128000 179.844000 -39.081100 -0.002282 -0.040193 -0.092424 0.251003 20.879200 -40.985400 0.000008 0.000006 -3.521560 -0.036247 -64.456600 -11.754300 -0.000006 -0.000006 -0.001477 -0.021965 -17.466300
0.000000 0.000000 0.000000 0.000000 0.000000 -0.000000 -3.842490 92.084000 -0.114158 88.451000 3.896520 4.589330 15.735700 0.000005 -0.000001 68.353900 84.655400 -64.006500 8.984550 -0.406207 -0.000000 2.347330 -4.145150 8.774590 16.377300 -0.000001 -0.000001 3.237070 -1.329350 -3.231710 6.456720 -0.000001 -0.000000 1.569190 -1.903040 7.800440 12.994200 -0.242716 4.980390 -84.156600 -11.140800 -62.091500 5.348090 -0.000007 -0.000001 -67.421000 -58.658100 -116.693000 24.328600 0.000019 0.000005 2.619780 2.305580 -48.678400 22.291600 -0.000001 0.000005 18.184400 5.535550 -8.041470 12.994500 -0.242716 -4.980390 90.935500 -2.572810 -70.011000 -5.348130 -0.000001 -0.000004 -58.708000 72.549100 9.711260 -24.328900 0.000322 -0.000009 19.152300 1.745070 -84.990000 -22.291500 -0.000108 -0.000004 33.700600 5.643370 -27.829300 -2.192480 -6.469440 -0.000000 -168.242000 -16.162300 -3.072220 39.081100 -0.000007 -0.000012 -0.144656 0.397790 19.983800 40.985400 -0.000006 -0.000013 -7.553420 0.926134 -60.071100 11.754300 -0.000000 0.000003 -0.000129 -0.001278 -16.626300 -2.192510 6.469440 -0.000001 174.861000 23.231500 179.972000 -39.081100 -0.002282 -0.040193 -0.093749 0.254870 20.849700 -40.985400 0.000008 0.000006 -3.584590 -0.093267 -64.432100 -11.754300 -0.000006 -0.000006 -0.001446 -0.021555 -17.449600
0.000000 0.000000 0.000000 0.000000 0.000000 -0.000000 -3.779500 92.082300 -0.133642 88.506400 3.958180 4.613530 15.735700 0.000005 -0.000001 67.571100 84.612000 -63.239200 8.984550 -0.406207 -0.000000 2.378970 -4.311570 8.748320 16.377300 -0.000001 -0.000001 3.220450 -1.184040 -3.548370 6.456720 -0.000001 -0.000000 1.487730 -1.771950 7.722180 12.994200 -0.242716 4.980390 -84.067300 -11.252300 -61.962200 5.348090 -0.000007 -0.000001 -67.038100 -57.643300 -118.371000 24.328600 0.000019 0.000005 1.930960 1.585400 -50.627100 22.291600 -0.000001 0.000005 18.179200 5.558680 -9.122630 12.994500 -0.242716 -4.980390 90.924300 -2.555590 -70.109100 -5.348130 -0.000001 -0.000004 -58.043900 72.665300 9.052450 -24.328900 0.000322 -0.000009 19.125100 1.738400 -85.001400 -22.291500 -0.000108 -0.000004 33.676600 5.642950 -27.865100 -2.192480 -6.469440 -0.000000 -168.343000 -16.278600 -3.111160 39.081100 -0.000007 -0.000012 -0.144275 0.395219 20.054800 40.985400 -0.000006 -0.000013 -7.467440 1.046700 -60.076500 11.754300 -0.000000 0.000003 -0.000150 -0.001453 -16.632800 -2.192510 6.469440 -0.000001 174.747000 23.279600 179.964000 -39.081100 -0.002282 -0.040193 -0.092156 0.249966 20.904700 -40.985400 0.000008 0.000006 -3.617120 -0.069075 -64.427500 -11.754300 -0.000006 -0.000006 -0.001414 -0.021130 -17.432300
0.000000 0.000000 0.000000 0.000000 0.000000 -0.000000 -3.721940 92.088400 -0.139834 88.525100 3.815480 4.532590 15.735700 0.000005 -0.000001 66.845300 84.610300 -62.462500 8.984550 -0.406207 -0.000000 2.336790 -4.442710 8.851410 16.377300 -0.000001 -0.000001 3.292400 -1.022760 -3.849530 6.456720 -0.000001 -0.000000 1.481380 -1.501300 7.364540 12.994200 -0.242716 4.980390 -84.001400 -11.332300 -61.864000 5.348090 -0.000007 -0.000001 -66.785000 -56.971200 -118.470000 24.328600 0.000019 0.000005 1.167930 0.954944 -50.733000 22.291600 -0.000001 0.000005 18.203100 5.569000 -9.637100 12.994500 -0.242716 -4.980390 90.917000 -2.548010 -70.199900 -5.348130 -0.000001 -0.000004 -57.345900 72.950100 8.365420 -24.328900 0.000322 -0.000009 18.942700 1.723210 -84.993700 -22.291500 -0.000108 -0.000004 33.781500 5.644520 -27.728600 -2.192480 -6.469440 -0.000000 -168.410000 -16.471100 -3.159390 39.081100 -0.000007 -0.000012 -0.142644 0.390445 20.069200 40.985400 -0.000006 -0.000013 -7.414010 1.079350 -60.102600 11.754300 -0.000000 0.000003 -0.000135 -0.001331 -16.628300 -2.192510 6.469440 -0.000001 174.717000 23.238100 179.882000 -39.081100 -0.002282 -0.040193 -0.093436 0.253887 20.861900 -40.985400 0.000008 0.000006 -3.640420 0.023022 -64.371500 -11.754300 -0.000006 -0.000006 -0.001576 -0.023282 -17.519800
0.000000 0.000000 0.000000 0.000000 0.000000 -0.000000 -3.681640 92.097500 -0.131011 88.561400 3.481270 4.455700 15.735700 0.000005 -0.000001 66.645800 84.602200 -62.197000 8.984550 -0.406207 -0.000000 2.341600 -4.486460 8.984390 16.377300 -0.000001 -0.000001 3.277700 -0.828895 -4.029470 6.456720 -0.000001 -0.000000 1.539250 -1.143390 6.975550 12.994200 -0.242716 4.980390 -84.059500 -11.243400 -61.912300 5.348090 -0.000007 -0.000001 -66.180800 -57.284400 -116.757000 24.328600 0.000019 0.000005 0.853936 0.732921 -49.361400 22.291600 -0.000001 0.000005 17.888800 5.565540 -9.461890 12.994500 -0.242716 -4.980390 90.903200 -2.509580 -70.197900 -5.348130 -0.000001 -0.000004 -56.719300 73.146800 7.747910 -24.328900 0.000322 -0.000009 18.946000 1.719970 -85.004000 -22.291500 -0.000108 -0.000004 33.992300 5.645080 -27.678500 -2.192480 -6.469440 -0.000000 -168.409000 -16.889400 -3.057260 39.081100 -0.000007 -0.000012 -0.141736 0.390309 19.958000 40.985400 -0.000006 -0.000013 -7.398470 1.185630 -60.086800 11.754300 -0.000000 0.000003 -0.000137 -0.001346 -16.628800 -2.192510 6.469440 -0.000001 174.696000 23.115300 179.770000 -39.081100 -0.002282 -0.040193 -0.092434 0.251605 20.835400 -40.985400 0.000008 0.000006 -3.613770 0.245034 -64.311900 -11.754300 -0.000006 -0.000006 -0.001417 -0.021170 -17.434000
0.000000 0.000000 0.000000 0.000000 0.000000 -0.000000 -3.706340 92.100600 -0.117627 88.517700 2.994690 4.373880 15.735700 0.000005 -0.000001 66.747400 84.594500 -62.196500 8.984550 -0.406207 -0.000000 2.367740 -4.478680 9.189400 16.377300 -0.000001 -0.000001 3.290660 -0.638849 -4.061790 6.456720 -0.000001 -0.000000 1.548180 -0.812207 6.702700 12.994200 -0.242716 4.980390 -84.154000 -11.080000 -61.952700 5.348090 -0.000007 -0.000001 -65.000200 -58.393900 -113.028000 24.328600 0.000019 0.000005 0.877332 0.810353 -47.273800 22.291600 -0.000001 0.000005 17.683900 5.558290 -9.103580 12.994500 -0.242716 -4.980390 90.909500 -2.517680 -70.129300 -5.348130 -0.000001 -0.000004 -56.546400 73.194400 7.566010 -24.328900 0.000322 -0.000009 19.040300 1.723040 -85.021700 -22.291500 -0.000108 -0.000004 34.070600 5.645020 -27.684000 -2.192480 -6.469440 -0.000000 -168.320000 -17.249400 -2.999360 39.081100 -0.000007 -0.000012 -0.140205 0.386413 19.942800 40.985400 -0.000006 -0.000013 -7.446800 1.022670 -60.127600 11.754300 -0.000000 0.000003 -0.000141 -0.001377 -16.630000 -2.192510 6.469440 -0.000001 174.830000 22.819200 179.611000 -39.081100 -0.002282 -0.040193 -0.092825 0.252852 20.819100 -40.985400 0.000008 0.000006 -3.557350 0.388356 -64.264900 -11.754300 -0.000006 -0.000006 -0.001405 -0.021006 -17.427300
